<svg width="161" height="84" viewBox="0 0 161 84" fill="none" xmlns="http://www.w3.org/2000/svg">
<path d="M123.397 35V45.074C132.032 67.1555 140.124 72.2414 159.168 70.9667C147.11 61.7034 142.871 52.8377 139.711 35H123.397Z" fill="#CCCCCC" stroke="#252525" stroke-width="1.2"/>
<path d="M37.3968 35V45.074C28.7618 67.1555 20.6698 72.2414 1.62592 70.9667C13.6833 61.7034 17.9223 52.8377 21.0829 35H37.3968Z" fill="#CCCCCC" stroke="#252525" stroke-width="1.2"/>
<mask id="path-3-outside-1_94_2" maskUnits="userSpaceOnUse" x="20.3969" y="0" width="120" height="61" fill="black">
<rect fill="white" x="20.3969" width="120" height="61"/>
<path d="M24.3969 30V4.00002H32.3969V21H41.3969V30H24.3969Z"/>
<path d="M60.3969 30V4.00002H66.3969V15H67.3969L72.3969 4.00002H79.3969L72.3969 18L79.3969 30H72.3969L67.3969 21H66.3969V30H60.3969Z"/>
<path d="M80.3969 30V4.00002H87.3969V15H92.3969V4.00002H98.3969V30H92.3969V21H87.3969V30H80.3969Z"/>
<path d="M99.3969 30V4.00002H114.397V9.00002H105.397V15H111.397V21H105.397V24H114.397V30H99.3969Z"/>
<path fill-rule="evenodd" clip-rule="evenodd" d="M49.3969 30H42.3969V4.00002H59.3969V30H53.3969V21H49.3969V30ZM49.3969 10H53.3969V15H49.3969V10Z"/>
<path d="M42.3969 57V31H49.3969V48H58.3969V57H42.3969Z"/>
<path fill-rule="evenodd" clip-rule="evenodd" d="M66.3969 57H59.3969V31H78.3969V57H72.3969V48H66.3969V57ZM66.3969 37H72.3969V42H66.3969V37Z"/>
<path fill-rule="evenodd" clip-rule="evenodd" d="M79.3969 57V31H93.3969C100.897 31 100.397 44.5 95.3969 44.5C100.397 44.5 100.397 57 95.3969 57H79.3969ZM85.3969 37H91.3969C93.3969 37 93.3969 41 91.3969 41H85.3969V37ZM85.3969 48H91.3969C93.3969 48 93.3969 52 91.3969 52H85.3969V48Z"/>
<path d="M100.397 57H118.397V42H107.397V37H112.397V40H118.397V31H100.397V47H112.397V52H107.397V49H100.397V57Z"/>
<path d="M115.397 4.00002L122.397 4V11C122.397 15 129.397 15 129.397 11V4.00002H136.397V11V21V30H129.397L115.397 30V16C116.885 19 119.885 20.5 122.397 21V24H129.397V19C121.707 22 115.397 16.8157 115.397 11V4.00002Z"/>
</mask>
<path d="M24.3969 30V4.00002H32.3969V21H41.3969V30H24.3969Z" fill="#CCCCCC"/>
<path d="M60.3969 30V4.00002H66.3969V15H67.3969L72.3969 4.00002H79.3969L72.3969 18L79.3969 30H72.3969L67.3969 21H66.3969V30H60.3969Z" fill="#CCCCCC"/>
<path d="M80.3969 30V4.00002H87.3969V15H92.3969V4.00002H98.3969V30H92.3969V21H87.3969V30H80.3969Z" fill="#CCCCCC"/>
<path d="M99.3969 30V4.00002H114.397V9.00002H105.397V15H111.397V21H105.397V24H114.397V30H99.3969Z" fill="#CCCCCC"/>
<path fill-rule="evenodd" clip-rule="evenodd" d="M49.3969 30H42.3969V4.00002H59.3969V30H53.3969V21H49.3969V30ZM49.3969 10H53.3969V15H49.3969V10Z" fill="#CCCCCC"/>
<path d="M42.3969 57V31H49.3969V48H58.3969V57H42.3969Z" fill="#CCCCCC"/>
<path fill-rule="evenodd" clip-rule="evenodd" d="M66.3969 57H59.3969V31H78.3969V57H72.3969V48H66.3969V57ZM66.3969 37H72.3969V42H66.3969V37Z" fill="#CCCCCC"/>
<path fill-rule="evenodd" clip-rule="evenodd" d="M79.3969 57V31H93.3969C100.897 31 100.397 44.5 95.3969 44.5C100.397 44.5 100.397 57 95.3969 57H79.3969ZM85.3969 37H91.3969C93.3969 37 93.3969 41 91.3969 41H85.3969V37ZM85.3969 48H91.3969C93.3969 48 93.3969 52 91.3969 52H85.3969V48Z" fill="#CCCCCC"/>
<path d="M100.397 57H118.397V42H107.397V37H112.397V40H118.397V31H100.397V47H112.397V52H107.397V49H100.397V57Z" fill="#CCCCCC"/>
<path d="M115.397 4.00002L122.397 4V11C122.397 15 129.397 15 129.397 11V4.00002H136.397V11V21V30H129.397L115.397 30V16C116.885 19 119.885 20.5 122.397 21V24H129.397V19C121.707 22 115.397 16.8157 115.397 11V4.00002Z" fill="#CCCCCC"/>
<path d="M24.3969 30V4.00002H32.3969V21H41.3969V30H24.3969Z" stroke="#252525" stroke-width="8" mask="url(#path-3-outside-1_94_2)"/>
<path d="M60.3969 30V4.00002H66.3969V15H67.3969L72.3969 4.00002H79.3969L72.3969 18L79.3969 30H72.3969L67.3969 21H66.3969V30H60.3969Z" stroke="#252525" stroke-width="8" mask="url(#path-3-outside-1_94_2)"/>
<path d="M80.3969 30V4.00002H87.3969V15H92.3969V4.00002H98.3969V30H92.3969V21H87.3969V30H80.3969Z" stroke="#252525" stroke-width="8" mask="url(#path-3-outside-1_94_2)"/>
<path d="M99.3969 30V4.00002H114.397V9.00002H105.397V15H111.397V21H105.397V24H114.397V30H99.3969Z" stroke="#252525" stroke-width="8" mask="url(#path-3-outside-1_94_2)"/>
<path fill-rule="evenodd" clip-rule="evenodd" d="M49.3969 30H42.3969V4.00002H59.3969V30H53.3969V21H49.3969V30ZM49.3969 10H53.3969V15H49.3969V10Z" stroke="#252525" stroke-width="8" mask="url(#path-3-outside-1_94_2)"/>
<path d="M42.3969 57V31H49.3969V48H58.3969V57H42.3969Z" stroke="#252525" stroke-width="8" mask="url(#path-3-outside-1_94_2)"/>
<path fill-rule="evenodd" clip-rule="evenodd" d="M66.3969 57H59.3969V31H78.3969V57H72.3969V48H66.3969V57ZM66.3969 37H72.3969V42H66.3969V37Z" stroke="#252525" stroke-width="8" mask="url(#path-3-outside-1_94_2)"/>
<path fill-rule="evenodd" clip-rule="evenodd" d="M79.3969 57V31H93.3969C100.897 31 100.397 44.5 95.3969 44.5C100.397 44.5 100.397 57 95.3969 57H79.3969ZM85.3969 37H91.3969C93.3969 37 93.3969 41 91.3969 41H85.3969V37ZM85.3969 48H91.3969C93.3969 48 93.3969 52 91.3969 52H85.3969V48Z" stroke="#252525" stroke-width="8" mask="url(#path-3-outside-1_94_2)"/>
<path d="M100.397 57H118.397V42H107.397V37H112.397V40H118.397V31H100.397V47H112.397V52H107.397V49H100.397V57Z" stroke="#252525" stroke-width="8" mask="url(#path-3-outside-1_94_2)"/>
<path d="M115.397 4.00002L122.397 4V11C122.397 15 129.397 15 129.397 11V4.00002H136.397V11V21V30H129.397L115.397 30V16C116.885 19 119.885 20.5 122.397 21V24H129.397V19C121.707 22 115.397 16.8157 115.397 11V4.00002Z" stroke="#252525" stroke-width="8" mask="url(#path-3-outside-1_94_2)"/>
<path d="M51.858 81.7483L29.3847 74.7283C29.3847 67.9897 33.6345 58.6768 37.6871 49C44.9676 61.2511 47.899 62.5059 51.858 68.018C54.5796 64.0202 62.5725 63.5962 65.8616 68.176C71.4545 61.1899 78.9757 65.6557 80.3847 68.5451V82.6H65.8616L51.858 81.7483Z" fill="#CCCCCC"/>
<path d="M108.911 81.7483L131.385 74.7283C131.385 67.9897 127.135 58.6768 123.082 49C115.802 61.2511 112.87 62.5059 108.911 68.018C106.19 64.0202 98.1969 63.5962 94.9078 68.176C89.3149 61.1899 81.7937 65.6557 80.3847 68.5451V82.6H94.9078L108.911 81.7483Z" fill="#CCCCCC"/>
<path d="M51.858 81.7483L29.3847 74.7283C29.3847 67.9897 33.6345 58.6768 37.6871 49C44.9676 61.2511 47.899 62.5059 51.858 68.018M51.858 81.7483L65.8616 82.6M51.858 81.7483V68.018M80.3847 82.6V68.5451M80.3847 82.6H65.8616M80.3847 82.6H94.9078M80.3847 68.5451C78.9757 65.6557 71.4545 61.1899 65.8616 68.176M80.3847 68.5451C81.7937 65.6557 89.3149 61.1899 94.9078 68.176M65.8616 68.176V82.6M65.8616 68.176C62.5725 63.5962 54.5796 64.0202 51.858 68.018M108.911 81.7483L131.385 74.7283C131.385 67.9897 127.135 58.6768 123.082 49C115.802 61.2511 112.87 62.5059 108.911 68.018M108.911 81.7483L94.9078 82.6M108.911 81.7483V68.018M94.9078 68.176V82.6M94.9078 68.176C98.1969 63.5962 106.19 64.0202 108.911 68.018" stroke="#252525" stroke-width="1.2"/>
</svg>
